<?xml version="1.0" standalone="no"?>
<!DOCTYPE svg PUBLIC "-//W3C//DTD SVG 20010904//EN"
 "http://www.w3.org/TR/2001/REC-SVG-20010904/DTD/svg10.dtd">
<svg version="1.0" xmlns="http://www.w3.org/2000/svg"
 width="824.000000pt" height="824.000000pt" viewBox="0 0 824.000000 824.000000"
 preserveAspectRatio="xMidYMid meet">
<metadata>
Created by potrace 1.11, written by Peter Selinger 2001-2013
</metadata>
<g transform="translate(0.000000,824.000000) scale(0.100000,-0.100000)"
fill="#000000" stroke="none">
<path d="M6615 8163 c-3 -38 -8 -88 -10 -113 -2 -25 -7 -124 -10 -220 -3 -96
-8 -233 -10 -305 -2 -71 -4 -141 -5 -153 l0 -24 -37 22 c-37 22 -74 43 -168
95 -233 128 -714 279 -1025 320 -19 3 -46 7 -60 10 -48 9 -176 22 -299 31
-173 11 -528 6 -656 -11 -16 -2 -52 -7 -80 -10 -96 -12 -121 -16 -235 -36 -63
-11 -167 -33 -230 -49 -63 -16 -126 -32 -140 -36 -14 -3 -34 -9 -45 -14 -11
-4 -54 -18 -95 -31 -160 -49 -458 -178 -620 -270 -171 -96 -326 -201 -483
-326 -109 -87 -298 -260 -339 -310 l-18 -21 -68 38 c-67 39 -158 73 -229 87
-49 10 -286 9 -338 -1 -131 -26 -393 -142 -383 -171 3 -11 8 -11 123 0 227 23
460 -9 582 -81 l47 -27 -55 -27 c-561 -272 -894 -580 -1122 -1035 -90 -182
-162 -400 -183 -560 -3 -27 -9 -70 -13 -95 -6 -40 -8 -237 -3 -347 3 -59 23
-55 45 10 69 197 237 509 393 728 161 226 384 460 569 597 102 76 141 100 115
70 -51 -59 -245 -347 -322 -478 -165 -280 -284 -583 -314 -802 -3 -24 -8 -54
-11 -68 -16 -88 -7 -440 13 -459 8 -9 16 9 21 46 29 225 124 605 190 753 61
137 121 248 171 313 24 31 140 147 146 147 4 0 -7 -26 -23 -59 -79 -156 -123
-373 -123 -616 -1 -92 10 -280 18 -332 9 -57 13 -86 13 -110 1 -24 27 -33 28
-10 5 179 25 403 49 532 14 76 53 210 59 203 2 -2 6 -34 9 -71 14 -159 23
-192 76 -292 29 -54 71 -128 94 -164 23 -36 45 -71 49 -78 5 -8 -11 -17 -47
-27 -63 -19 -66 -27 -60 -166 2 -47 -1 -99 -6 -115 -15 -46 -17 -100 -8 -169
45 -331 246 -739 471 -956 20 -19 37 -39 37 -45 0 -5 -22 -45 -50 -88 -70
-109 -92 -162 -98 -234 -7 -86 5 -116 116 -296 39 -66 72 -124 72 -130 0 -6
-19 -40 -42 -75 -65 -99 -58 -132 51 -249 66 -69 142 -178 162 -229 5 -16 16
-42 24 -59 7 -16 25 -63 40 -102 15 -40 37 -89 51 -108 13 -20 24 -40 24 -45
0 -24 181 -187 283 -253 105 -68 234 -137 257 -137 6 0 18 -4 28 -9 9 -5 74
-31 143 -57 123 -48 126 -49 155 -98 62 -104 205 -222 330 -271 l41 -16 1 -62
c2 -129 71 -240 187 -300 92 -47 265 -62 379 -32 131 34 264 128 330 234 24
37 31 42 59 40 45 -4 69 12 123 81 58 74 88 85 121 44 12 -16 23 -33 23 -39 0
-20 46 -64 70 -69 14 -2 60 -39 106 -84 161 -159 364 -217 535 -153 158 59
263 226 260 415 l0 51 68 42 c97 60 186 150 264 267 19 29 50 52 119 88 452
240 685 447 714 633 4 29 21 57 64 105 132 149 206 265 216 339 8 54 -16 96
-61 111 -19 6 -35 14 -35 17 0 9 120 298 131 313 5 8 24 44 41 79 49 99 45
160 -13 219 l-31 31 72 73 c119 122 227 303 341 573 11 27 70 204 74 224 2 9
8 37 14 63 19 81 30 312 19 368 -13 60 -50 100 -93 100 -9 0 -13 9 -11 28 2
15 -2 55 -10 89 -19 91 -10 194 25 304 30 96 58 194 67 239 2 14 12 61 21 105
13 66 14 122 10 320 -4 132 -9 254 -11 270 -3 17 -10 66 -17 110 -6 44 -12 87
-14 95 -69 336 -212 639 -434 915 -73 92 -215 242 -296 313 l-45 40 62 53
c111 94 261 247 254 258 -5 7 -57 -15 -146 -59 -77 -39 -142 -70 -144 -70 -3
0 1 12 9 28 52 110 155 350 155 361 0 21 -71 110 -205 260 -66 74 -287 293
-342 339 l-51 42 -7 -67z"/>
</g>
</svg>
